<svg width="24" height="24" viewBox="0 0 24 24" fill="none" xmlns="http://www.w3.org/2000/svg">
<path d="M5.96845 13.0942L6.56845 8.57543L1.35596 4.95668L6.11845 6.56918L7.24345 4.84418L11.3497 2.29419L20.406 7.28168L20.8748 14.8942L16.8435 20.5004L13.656 20.9879L15.306 17.9692V15.0629L14.106 12.7942L12.8872 11.9879L11.0122 13.9192V15.9629L9.5497 17.3317L7.69345 17.5567L6.86845 18.0254L5.51845 17.5942L4.95595 15.5692L5.96845 14.1442V13.0942Z" fill="white"/>
<path d="M14.2935 4.91897C13.2998 4.71272 12.2123 4.76897 12.2123 4.76897C12.2123 4.76897 11.856 6.41897 9.64355 6.85022C9.6623 6.85022 12.5685 7.84398 14.2935 4.91897Z" fill="#94A6C3"/>
<path d="M15.1935 19.8817C16.3935 18.9442 17.2935 17.6505 17.706 16.188C17.7248 16.1317 17.8935 16.038 18.006 15.963C18.1935 15.8505 18.381 15.7567 18.4185 15.6067C18.4935 15.1755 18.531 14.7255 18.531 14.2755C18.531 14.1067 18.3623 13.938 18.1935 13.7692C18.0623 13.6567 17.931 13.5255 17.931 13.4317C17.7435 11.7255 16.956 10.1317 15.6998 8.96924L15.5685 9.10049C16.7873 10.2442 17.5748 11.8005 17.7435 13.4505C17.7623 13.6005 17.9123 13.7505 18.0623 13.9005C18.1935 14.013 18.3435 14.1817 18.3435 14.2567C18.3435 14.688 18.306 15.1192 18.231 15.5505C18.2123 15.6255 18.0435 15.7005 17.9123 15.7755C17.7248 15.8692 17.556 15.963 17.5185 16.113C17.0685 17.7067 16.0373 19.0942 14.6685 19.9942C14.9123 19.4692 15.681 17.763 16.0935 16.9005L16.0185 14.1255L13.6373 11.8192L12.2873 12.0067L10.806 14.4067C10.806 14.4067 11.4998 15.288 10.5248 16.3192C9.56851 17.3317 8.81851 17.5567 8.81851 17.5567L8.12476 17.1817C8.33101 16.9192 8.74351 16.5255 9.06226 16.263C9.60601 15.813 10.1498 15.7755 10.1498 15.288C10.1685 14.2755 9.08101 14.5567 9.08101 14.5567L8.68726 14.9317L8.51851 16.3192L7.69351 17.3505L7.59976 17.3317L6.24976 17.0317C6.24976 17.0317 7.07476 16.6005 7.20601 16.113C7.33726 15.6442 6.94351 14.088 6.92476 13.9942C6.94351 14.013 7.31851 14.3317 7.48726 14.8567C7.78726 14.0317 8.18101 13.2442 8.29351 13.1692C8.40601 13.0942 9.92476 12.288 9.92476 12.288L9.41851 13.6192L9.79351 13.413L10.6935 11.2005C10.6935 11.2005 11.5748 10.7692 12.231 10.7692C13.4123 10.7505 15.156 9.30674 14.3685 6.71924C14.5935 6.81299 18.4935 8.76299 19.1685 12.588C19.6748 15.5317 18.006 18.288 15.1935 19.8817Z" fill="#94A6C3"/>
<path d="M10.731 5.33169C11.1623 4.82544 10.9935 4.07544 10.9935 4.07544L9.73724 5.93169C9.71849 5.93169 10.1873 5.95044 10.731 5.33169Z" fill="#1B314F"/>
<path d="M6.51226 15.4756L6.66226 14.7256C6.66226 14.7256 6.04351 15.8131 5.98726 15.9631C5.93101 16.1318 6.02476 16.4318 6.26851 16.4131C6.51226 16.3943 6.81226 16.0381 6.81226 15.7756C6.81226 15.4381 6.51226 15.4756 6.51226 15.4756Z" fill="#1B314F"/>
<path d="M17.6498 3.55042C17.6498 3.55042 18.5873 3.58792 19.5623 3.70042C17.3685 1.97541 15.2873 1.46916 13.5998 1.46916C11.2748 1.46916 9.69975 2.42542 9.606 2.48167L10.3373 1.31916C10.3373 1.31916 7.41225 1.03791 6.381 4.13167C6.1185 3.47542 5.87475 2.51917 5.87475 2.51917C5.87475 2.51917 4.356 3.85042 5.0685 6.06292C3.32475 5.42542 0.831 4.54417 0.73725 4.52542C0.606 4.50667 0.5685 4.56292 0.5685 4.56292C0.5685 4.56292 0.531 4.61917 0.6435 4.71292C0.84975 4.88167 4.78725 7.78792 5.64975 8.35042C5.46225 9.02542 5.46225 9.34417 5.64975 9.66292C5.91225 10.0942 5.931 10.3192 5.8935 10.6379C5.856 10.9567 5.5185 13.7129 5.4435 14.0504C5.3685 14.3879 4.581 15.5879 4.6185 15.9441C4.656 16.3004 5.1435 17.8191 5.57475 17.9879C5.8935 18.1004 6.681 18.3442 7.206 18.3442C7.3935 18.3442 7.56225 18.3066 7.63725 18.2316C7.956 17.9504 8.04975 17.8941 8.27475 17.8941C8.2935 17.8941 8.31225 17.8941 8.331 17.8941C8.42475 17.8941 8.53725 17.9129 8.6685 17.9129C8.9685 17.9129 9.36225 17.8567 9.6435 17.5942C10.056 17.1817 10.7685 16.6191 10.9935 16.3566C11.2748 16.0004 11.4248 15.5129 11.3498 15.0254C11.2935 14.5754 11.5373 14.1816 11.8185 13.7879C12.1748 13.3191 12.831 12.4754 12.831 12.4754C14.1248 13.4504 14.931 14.9316 14.931 16.5816C14.931 19.5066 12.381 21.8691 9.231 21.8691C8.7435 21.8691 8.27475 21.8129 7.806 21.7004C9.24975 22.2066 10.4685 22.3754 11.4623 22.3754C13.581 22.3754 14.706 21.6066 14.706 21.6066C14.706 21.6066 14.3123 22.1129 13.6748 22.6941C13.6935 22.6941 13.6935 22.6941 13.6935 22.6941C17.1998 22.2066 18.906 19.3191 18.906 19.3191C18.906 19.3191 18.7748 20.2566 18.606 20.8941C23.2748 17.3879 22.4873 13.0004 22.4685 12.8504C22.506 12.9067 22.9748 13.4692 23.2185 13.7691C23.9686 6.04414 17.6498 3.55042 17.6498 3.55042ZM10.4685 15.8879C10.3935 15.9816 10.0748 16.2629 9.84975 16.4692C9.62475 16.6754 9.381 16.8816 9.1935 17.0691C9.1185 17.1441 8.9685 17.1816 8.7435 17.1816C8.6685 17.1816 8.5935 17.1816 8.53725 17.1816C8.49975 17.1816 8.46225 17.1816 8.42475 17.1816C8.38725 17.1816 8.3685 17.1816 8.34975 17.1816C8.2935 17.1816 8.23725 17.1816 8.181 17.1816C8.46225 16.8066 9.28725 15.9441 9.5685 15.7566C9.906 15.5317 10.0748 15.3066 9.8685 14.9129C9.66225 14.5191 9.1185 14.6129 9.1185 14.6129C9.1185 14.6129 9.43725 14.4816 9.7185 14.4816C9.36225 14.3879 8.91225 14.4817 8.706 14.6879C8.481 14.8941 8.5185 15.6254 8.42475 16.0942C8.331 16.5816 8.01225 16.8254 7.52475 17.2754C7.26225 17.5191 7.07475 17.5942 6.92475 17.5942C6.606 17.5379 6.231 17.4441 5.9685 17.3504C5.781 17.1066 5.49975 16.3004 5.42475 15.9629C5.481 15.7754 5.706 15.3816 5.8185 15.1567C6.0435 14.7254 6.17475 14.4816 6.21225 14.2566C6.28725 13.9379 6.531 11.9692 6.62475 11.1442C6.8685 11.4629 7.206 11.9879 7.131 12.3254C7.67475 11.5567 7.281 10.8067 7.0935 10.5067C6.92475 10.2067 6.69975 9.60667 6.88725 8.96917C7.07475 8.33164 7.74975 6.56917 7.74975 6.56917C7.74975 6.56917 7.97475 6.96292 8.2935 6.88792C8.61225 6.81292 11.181 2.95042 11.181 2.95042C11.181 2.95042 11.8748 4.46917 11.1435 5.57542C10.3935 6.68167 9.66225 6.88792 9.66225 6.88792C9.66225 6.88792 10.6935 7.07542 11.6498 6.38167C12.0435 7.30042 12.4185 8.25667 12.4373 8.38792C12.381 8.51917 11.631 10.3192 11.556 10.4317C11.5185 10.4692 11.256 10.5442 11.0685 10.5817C10.7498 10.6754 10.5623 10.7317 10.4873 10.7879C10.356 10.9004 9.756 12.5504 9.47475 13.3566C9.13725 13.4504 8.79975 13.6379 8.556 14.0129C8.68725 13.9191 9.09975 13.8629 9.39975 13.8254C9.66225 13.8066 10.4685 14.2379 10.6748 15.0441C10.6748 15.0629 10.6748 15.0629 10.6748 15.0816C10.7123 15.3816 10.6185 15.6629 10.4685 15.8879ZM8.706 16.1129C8.87475 15.8691 8.856 15.4566 8.87475 15.3254C8.8935 15.1941 8.931 14.9504 9.081 14.9129C9.231 14.8754 9.58725 14.9316 9.58725 15.1941C9.58725 15.4379 9.32475 15.4941 9.13725 15.6629C9.006 15.7941 8.7435 16.0754 8.706 16.1129ZM16.1873 12.5317C16.3748 11.5754 16.3935 10.7504 16.3373 10.0754C17.0685 11.0504 17.5185 12.2316 17.6498 13.4504C17.6685 13.6004 17.8185 13.7504 17.9685 13.9004C18.0998 14.0129 18.2498 14.1629 18.2498 14.2566C18.2498 14.6879 18.2123 15.1191 18.1373 15.5504C18.1185 15.6067 17.9498 15.7004 17.8185 15.7754C17.631 15.8691 17.4623 15.9629 17.4248 16.1129C17.0123 17.5566 16.131 18.8316 14.9498 19.7316C16.6935 17.9129 17.5373 14.9129 16.1873 12.5317ZM15.006 19.9004C16.2248 18.9629 17.1623 17.6504 17.5748 16.1691C17.5935 16.1129 17.7623 16.0191 17.8748 15.9441C18.0623 15.8504 18.2498 15.7379 18.2873 15.5879C18.3623 15.1566 18.3998 14.7066 18.3998 14.2566C18.3998 14.0879 18.231 13.9192 18.0623 13.7504C17.9685 13.6379 17.8185 13.5066 17.8185 13.4129C17.6685 12.0441 17.1248 10.7504 16.281 9.68167C15.906 7.43167 14.406 6.73792 14.3685 6.71917C14.406 6.77542 15.381 8.18167 14.706 9.83167C14.0123 11.5004 12.231 11.2379 12.081 11.2567C11.931 11.2567 11.3498 12.0066 10.6185 13.3941C10.5248 13.3567 10.131 13.2629 9.681 13.3379C10.0185 12.4004 10.5248 11.0692 10.6185 10.9567C10.656 10.9192 10.9373 10.8442 11.1248 10.7879C11.481 10.6942 11.6498 10.6379 11.706 10.5629C11.7435 10.5067 11.931 10.0754 12.1185 9.62542C12.2873 9.62542 12.7185 9.58792 12.756 9.56917C12.7935 9.53167 13.1498 8.61289 13.1498 8.50042C13.1498 8.40667 12.4185 6.58792 12.1373 5.89417C12.2685 5.74417 12.3998 5.55667 12.531 5.35042C16.3748 5.76292 19.3748 9.02542 19.3748 12.9817C19.3748 16.0191 17.5935 18.6629 15.006 19.9004Z" fill="#1B314F"/>
<path d="M10.0185 9.77549C10.3747 9.36299 10.1872 8.59424 9.53102 8.46299C9.69977 8.06924 9.94352 7.28174 9.94352 7.28174C9.94352 7.28174 8.03102 10.2817 7.86227 10.338C7.69352 10.3942 7.52477 9.73799 7.52477 9.73799C7.16852 11.1067 8.12477 11.2942 8.23727 10.863C8.76227 10.7317 9.66227 10.1692 10.0185 9.77549Z" fill="#1B314F"/>
<path d="M8.38721 10.5067L9.36221 8.83789C9.36221 8.83789 9.92471 9.11914 9.64346 9.56914C9.28721 10.0942 8.38721 10.5067 8.38721 10.5067Z" fill="#FFD923"/>
<path d="M20.4435 18.2316C20.1622 18.6066 19.8435 19.0003 19.4685 19.3753C21.8872 14.7253 19.581 10.4691 19.4872 10.3003C19.656 10.4691 19.8247 10.6566 19.9747 10.8253C21.831 12.8878 22.056 15.9816 20.4435 18.2316Z" fill="#D82122"/>
<path d="M22.6935 12.2506C21.8497 9.98184 20.6497 8.05059 18.006 6.30684C15.456 4.61934 12.7185 4.75059 12.5685 4.76934C12.5497 4.76934 12.531 4.76934 12.531 4.76934C12.6247 4.73184 12.7185 4.71309 12.8122 4.69434C13.3935 4.50684 14.1435 4.35684 14.8935 4.26309C16.881 3.98184 18.8872 4.65684 20.256 6.10059C20.2747 6.11934 20.2747 6.11934 20.2935 6.13809C21.8497 7.78809 22.656 9.85059 22.6935 12.2506Z" fill="#D82122"/>
<path d="M17.406 2.96918C14.6123 2.44418 12.8123 2.70668 11.5185 3.19418C11.481 3.04418 11.3498 2.74418 11.2373 2.50043C10.8435 2.96918 10.431 3.53168 10.1685 3.88793C9.45601 4.37543 9.15601 4.84418 9.15601 4.84418C9.56851 3.43793 10.7685 2.38793 12.231 2.12544C12.6435 2.05044 13.0935 2.01294 13.581 2.01294C14.8748 2.03169 16.1685 2.35043 17.406 2.96918Z" fill="#D82122"/>
<path d="M7.07475 6.56919C4.881 6.49419 5.61225 3.94419 5.64975 3.79419C5.64975 3.81294 5.79975 5.80044 7.07475 6.56919Z" fill="#D82122"/>
<path d="M9.23095 1.97534C7.54345 2.98784 7.88095 5.40659 7.88095 5.40659C6.26845 2.95034 9.0997 2.03159 9.23095 1.97534Z" fill="#D82122"/>
<path d="M6.45603 7.24429C6.56853 7.33804 6.68103 7.50679 6.54978 7.75054C6.47478 7.88179 6.36228 7.86304 6.19353 7.78804C5.96853 7.67554 4.61853 6.88804 3.39978 6.08179C4.78728 6.56929 6.19353 7.09429 6.41853 7.20679C6.41853 7.20679 6.43728 7.22554 6.45603 7.24429Z" fill="white"/>
</svg>
