<svg width="30" height="26" viewBox="0 0 30 26" fill="none" xmlns="http://www.w3.org/2000/svg">
<path d="M28.5 2.33057V10.3327H21" stroke="white" stroke-width="2" stroke-linecap="round" stroke-linejoin="round"/>
<path d="M28.5 2.33057V10.3327H21" stroke="#777B7E" stroke-width="2" stroke-linecap="round" stroke-linejoin="round"/>
<path d="M1 23.6696V15.6675H8.5" stroke="white" stroke-width="2" stroke-linecap="round" stroke-linejoin="round"/>
<path d="M1 23.6696V15.6675H8.5" stroke="#777B7E" stroke-width="2" stroke-linecap="round" stroke-linejoin="round"/>
<path d="M4.1375 8.99895C4.77146 7.08749 5.84892 5.37853 7.26933 4.03153C8.68975 2.68453 10.4068 1.74339 12.2604 1.29593C14.1139 0.848474 16.0434 0.909277 17.869 1.47267C19.6945 2.03606 21.3566 3.08368 22.7 4.51777L28.5 10.3326M1 15.6674L6.8 21.4822C8.14343 22.9163 9.80547 23.9639 11.631 24.5273C13.4566 25.0907 15.3861 25.1515 17.2396 24.7041C19.0932 24.2566 20.8102 23.3155 22.2307 21.9685C23.6511 20.6215 24.7285 18.9125 25.3625 17.0011" stroke="#777B7E" stroke-width="2" stroke-linecap="round" stroke-linejoin="round"/>
<path d="M4.1375 8.99895C4.77146 7.08749 5.84892 5.37853 7.26933 4.03153C8.68975 2.68453 10.4068 1.74339 12.2604 1.29593C14.1139 0.848474 16.0434 0.909277 17.869 1.47267C19.6945 2.03606 21.3566 3.08368 22.7 4.51777L28.5 10.3326M1 15.6674L6.8 21.4822C8.14343 22.9163 9.80547 23.9639 11.631 24.5273C13.4566 25.0907 15.3861 25.1515 17.2396 24.7041C19.0932 24.2566 20.8102 23.3155 22.2307 21.9685C23.6511 20.6215 24.7285 18.9125 25.3625 17.0011" stroke="#777B7E" stroke-width="2" stroke-linecap="round" stroke-linejoin="round"/>
</svg>
