<svg width="30" height="25" viewBox="0 0 30 25" fill="none" xmlns="http://www.w3.org/2000/svg">
<path d="M28.5 2.24704V9.74704H21" stroke="white" stroke-width="2" stroke-linecap="round" stroke-linejoin="round"/>
<path d="M1 22.247V14.747H8.5" stroke="white" stroke-width="2" stroke-linecap="round" stroke-linejoin="round"/>
<path d="M4.1375 8.49704C4.77146 6.70552 5.84892 5.1038 7.26933 3.84132C8.68975 2.57883 10.4068 1.69675 12.2604 1.27737C14.1139 0.857982 16.0434 0.914969 17.869 1.44301C19.6945 1.97105 21.3566 2.95293 22.7 4.29704L28.5 9.74704M1 14.747L6.8 20.197C8.14343 21.5412 9.80547 22.523 11.631 23.0511C13.4566 23.5791 15.3861 23.6361 17.2396 23.2167C19.0932 22.7973 20.8102 21.9152 22.2307 20.6528C23.6511 19.3903 24.7285 17.7886 25.3625 15.997" stroke="white" stroke-width="2" stroke-linecap="round" stroke-linejoin="round"/>
</svg>
