<svg width="24" height="24" viewBox="0 0 24 24" fill="none" xmlns="http://www.w3.org/2000/svg">
<path d="M21 16.5996C21 18.2418 16.9704 19.5761 11.9926 19.5761C7.02963 19.5908 3 18.2565 3 16.5996C3 15.4265 5.04444 14.4148 8.00741 13.9309C9.19259 14.1949 10.5556 14.3415 12.0074 14.3415C13.4593 14.3415 14.837 14.1949 16.0074 13.9309C18.9704 14.4148 21 15.4412 21 16.5996Z" fill="black"/>
<path d="M12.0074 8.91634C15.0184 8.91634 17.4593 8.122 17.4593 7.14213C17.4593 6.16226 15.0184 5.36792 12.0074 5.36792C8.99642 5.36792 6.55554 6.16226 6.55554 7.14213C6.55554 8.122 8.99642 8.91634 12.0074 8.91634Z" fill="black"/>
<path d="M19.2221 11.2772C19.2221 12.5822 15.9924 13.6232 12.0073 13.6232C8.02211 13.6232 4.79248 12.5675 4.79248 11.2772C4.79248 10.3681 6.37766 9.57632 8.70359 9.18042C9.65174 9.41502 10.7924 9.54699 12.0073 9.54699C13.2221 9.54699 14.348 9.41502 15.2961 9.18042C17.6221 9.57632 19.2221 10.3534 19.2221 11.2772Z" fill="black"/>
</svg>
