<svg width="36" height="36" viewBox="0 0 36 36" fill="none" xmlns="http://www.w3.org/2000/svg">
<g clip-path="url(#clip0)" filter="url(#filter0_i)">
<path d="M34.2007 14.9999H30.7808C29.6754 12.8567 28.0508 11.0245 26.0552 9.6707C26.876 8.96351 27.642 8.19514 28.3466 7.37214C28.7258 6.92692 28.7258 6.27239 28.3466 5.82717C27.2516 4.53596 23.4716 0.489582 18.8253 0.0443668C18.5787 0.0159608 18.3307 0.00112499 18.0825 0C18.0681 0 18.0549 0 18.0405 0C18.0261 0 18.0142 0 18.0009 0C12.9807 0 8.81377 4.46038 7.65636 5.82717C7.27724 6.27239 7.27724 6.92692 7.65636 7.37214C8.36096 8.19514 9.12694 8.96351 9.94776 9.6707C7.95174 11.0244 6.32669 12.8565 5.22097 14.9999H1.80099C0.806923 14.9999 0.00100708 15.8057 0.00100708 16.7998V26.3997C0.00100708 27.3938 0.806852 28.1997 1.80099 28.1997H5.20894C7.67619 32.9897 12.6128 35.9999 18.0009 35.9999C23.3889 35.9999 28.3255 32.9897 30.7928 28.1997H34.2007C35.1948 28.1997 36.0007 27.3938 36.0007 26.3997V16.7998C36.0007 15.8058 35.1949 14.9999 34.2007 14.9999ZM23.7705 3.27119C25.1234 4.22378 26.3517 5.34209 27.4268 6.59997C26.352 7.85884 25.1237 8.97792 23.7705 9.93114C24.9854 7.8774 24.9854 5.32493 23.7705 3.27119ZM18.0399 1.20001C18.2654 1.20001 18.4887 1.21619 18.7101 1.23721C21.4314 1.55312 23.4841 3.85802 23.4841 6.59758C23.4841 9.33715 21.4314 11.642 18.7101 11.958C18.4881 11.979 18.2649 11.994 18.0393 11.9951C15.121 11.908 12.8005 9.51693 12.8007 6.5973C12.8007 3.6776 15.1215 1.28685 18.0399 1.20001ZM28.5207 24.0637C27.3822 28.9542 23.0233 32.4149 18.0021 32.4149C12.9808 32.4149 8.62195 28.9542 7.48339 24.0637C6.34483 19.1732 8.72707 14.1432 13.2321 11.9255C14.6962 12.7272 16.332 13.1643 18.0009 13.1999C18.0141 13.1999 18.0272 13.1999 18.0405 13.1999C18.0537 13.1999 18.0681 13.1999 18.0824 13.1999C18.3306 13.1987 18.5786 13.1839 18.8252 13.1555C20.2074 13.002 21.5473 12.5844 22.772 11.9255C27.277 14.1432 29.6592 19.1732 28.5207 24.0637ZM8.57253 6.60292C9.72009 5.2554 11.0449 4.06966 12.5109 3.07798C11.1397 5.22594 11.1397 7.9745 12.5109 10.1225C11.046 9.13162 9.72121 7.94778 8.57253 6.60292ZM4.6558 26.9998H1.80099C1.46961 26.9998 1.20102 26.7312 1.20102 26.3998V25.7998H1.80099C2.13237 25.7998 2.40096 25.5313 2.40096 25.1999C2.40096 24.8685 2.1323 24.5999 1.80099 24.5999H1.20102V23.3998H1.80099C2.13237 23.3998 2.40096 23.1312 2.40096 22.7998C2.40096 22.4685 2.1323 22.1999 1.80099 22.1999H1.20102V20.9999H1.80099C2.13237 20.9999 2.40096 20.7313 2.40096 20.3999C2.40096 20.0685 2.1323 19.7999 1.80099 19.7999H1.20102V18.5999H1.80099C2.13237 18.5999 2.40096 18.3313 2.40096 17.9999C2.40096 17.6685 2.1323 17.4 1.80099 17.4H1.20102V16.8C1.20102 16.4686 1.46961 16.2 1.80099 16.2H4.6636C3.24949 19.6605 3.24668 23.5372 4.6558 26.9998ZM30.6771 25.2879C29.0393 30.9262 23.8723 34.8034 18.0009 34.7997C12.1295 34.8034 6.96238 30.9262 5.32461 25.2879C3.68683 19.6496 5.97267 13.6075 10.9323 10.4651C11.2724 10.7225 11.6288 10.9763 12.0063 11.2199C7.3003 13.9336 5.00433 19.4704 6.40903 24.718C7.81372 29.9657 12.5685 33.6152 18.0009 33.6152C23.4332 33.6152 28.1881 29.9657 29.5927 24.718C30.9973 19.4704 28.7014 13.9336 23.9955 11.2199C24.3728 10.9763 24.7292 10.7225 25.0695 10.4651C30.0291 13.6075 32.3149 19.6496 30.6771 25.2879ZM34.8007 17.3999H34.2007C33.8694 17.3999 33.6008 17.6685 33.6008 17.9999C33.6008 18.3312 33.8694 18.5998 34.2007 18.5998H34.8007V19.7998H34.2007C33.8694 19.7998 33.6008 20.0684 33.6008 20.3998C33.6008 20.7312 33.8694 20.9998 34.2007 20.9998H34.8007V22.1998H34.2007C33.8694 22.1998 33.6008 22.4684 33.6008 22.7998C33.6008 23.1312 33.8694 23.3997 34.2007 23.3997H34.8007V24.5998H34.2007C33.8694 24.5998 33.6008 24.8684 33.6008 25.1997C33.6008 25.5311 33.8694 25.7997 34.2007 25.7997H34.8007V26.3997C34.8007 26.7311 34.5321 26.9996 34.2007 26.9996H31.3459C32.755 23.5371 32.7522 19.6603 31.3381 16.1997H34.2007C34.5321 16.1997 34.8007 16.4683 34.8007 16.7997V17.3999Z" fill="white"/>
<path d="M10.2001 16.7998V19.1998C10.2001 19.8626 10.7373 20.3998 11.4001 20.3998H24.6C25.2627 20.3998 25.8 19.8626 25.8 19.1998V16.7998C25.8 16.1371 25.2627 15.5998 24.6 15.5998H11.4C10.7373 15.5999 10.2001 16.1371 10.2001 16.7998ZM23.3999 16.7998H24.6V19.1998H23.3999V16.7998ZM21 16.7998H22.2V19.1998H21V16.7998ZM18.6 16.7998H19.8V19.1998H18.6V16.7998ZM16.2 16.7998H17.4V19.1998H16.2V16.7998ZM13.8 16.7998H15.0001V19.1998H13.8V16.7998ZM12.6 19.1999H11.4V16.7999H12.6V19.1999Z" fill="white"/>
<path d="M13.2 22.7998H10.2C9.86863 22.7998 9.60004 23.0685 9.60004 23.3998C9.60004 23.7312 9.86863 23.9998 10.2 23.9998H13.2C13.5314 23.9998 13.8 23.7311 13.8 23.3998C13.8001 23.0684 13.5314 22.7998 13.2 22.7998Z" fill="white"/>
<path d="M13.2 25.1998H10.2C9.86863 25.1998 9.60004 25.4684 9.60004 25.7998C9.60004 26.1312 9.86863 26.3997 10.2 26.3997H13.2C13.5314 26.3997 13.8 26.1312 13.8 25.7998C13.8 25.4684 13.5314 25.1998 13.2 25.1998Z" fill="white"/>
<path d="M22.8 22.7998C22.4686 22.7998 22.2 23.0685 22.2 23.3998C22.2 23.7312 22.4686 23.9998 22.8 23.9998H25.8C26.1314 23.9998 26.4 23.7311 26.4 23.3998C26.4 23.0684 26.1314 22.7998 25.8 22.7998H22.8Z" fill="white"/>
<path d="M25.7999 25.1998H22.7999C22.4685 25.1998 22.2 25.4684 22.2 25.7998C22.2 26.1312 22.4685 26.3997 22.7999 26.3997H25.7999C26.1313 26.3997 26.3999 26.1312 26.3999 25.7998C26.3999 25.4684 26.1313 25.1998 25.7999 25.1998Z" fill="white"/>
<path d="M17.9778 10.7981L17.9784 10.7999H17.9881H18.0001C18.0837 10.8 18.1671 10.7955 18.2503 10.7867C19.5514 10.6583 20.5144 9.51796 20.4229 8.21367C20.3313 6.90932 19.2186 5.91461 17.9123 5.96931C16.6059 6.02402 15.5802 7.10823 15.5979 8.41561C15.6156 9.72299 16.6704 10.7789 17.9778 10.7981ZM17.0652 7.64633H17.0676C17.2674 7.39812 17.5582 7.24041 17.8752 7.20835C17.9178 7.20413 17.9604 7.20174 18.003 7.20174C18.6403 7.2047 19.164 7.70518 19.196 8.34164C19.2279 8.9781 18.7568 9.52844 18.123 9.59516C17.6403 9.64586 17.1746 9.40075 16.9429 8.97417C16.7115 8.54751 16.7597 8.02348 17.0652 7.64633Z" fill="white"/>
<path d="M20.322 25.267L20.3088 25.2556C19.7312 24.7386 19.3987 24.0017 19.3932 23.2264V23.122C19.4024 22.8726 19.4472 22.6256 19.5263 22.3888C19.6027 22.1583 19.5325 21.9044 19.3485 21.7458C19.1646 21.5872 18.9032 21.5552 18.6863 21.6646C18.0266 21.9974 17.4638 22.4948 17.0526 23.1088C16.7018 23.6341 16.4842 24.2368 16.4183 24.865C16.3289 24.8705 16.2419 24.8956 16.1633 24.9388C15.0935 25.5127 14.4186 26.6212 14.4 27.835C14.469 29.7564 16.0782 31.2604 17.9999 31.1997C19.4803 31.2245 20.8249 30.3403 21.3887 28.9713C21.716 28.1199 21.6609 27.1688 21.2375 26.3608C20.998 25.946 20.6882 25.5759 20.322 25.267ZM20.2686 28.5412C19.883 29.4464 18.9837 30.0246 18 29.9998C16.7413 30.0597 15.6698 29.0933 15.6 27.835C15.6019 27.3324 15.7905 26.8485 16.1292 26.4772C16.3964 27.0044 16.8199 27.436 17.3418 27.7133C17.5876 27.8452 17.8917 27.7905 18.076 27.5811C18.2603 27.3717 18.2761 27.063 18.114 26.836C17.4522 25.9285 17.4282 24.704 18.054 23.7713C18.102 23.6993 18.1534 23.6292 18.2082 23.5613C18.2976 24.5451 18.7522 25.4598 19.4826 26.125C19.4875 26.1302 19.4927 26.135 19.4982 26.1395C19.7648 26.3593 19.9933 26.6216 20.1744 26.9158C20.3232 27.1993 20.4006 27.5148 20.4 27.835C20.4003 28.0765 20.3557 28.316 20.2686 28.5412Z" fill="white"/>
</g>
<defs>
<filter id="filter0_i" x="0" y="0" width="36" height="40" filterUnits="userSpaceOnUse" color-interpolation-filters="sRGB">
<feFlood flood-opacity="0" result="BackgroundImageFix"/>
<feBlend mode="normal" in="SourceGraphic" in2="BackgroundImageFix" result="shape"/>
<feColorMatrix in="SourceAlpha" type="matrix" values="0 0 0 0 0 0 0 0 0 0 0 0 0 0 0 0 0 0 127 0" result="hardAlpha"/>
<feOffset dy="4"/>
<feGaussianBlur stdDeviation="2"/>
<feComposite in2="hardAlpha" operator="arithmetic" k2="-1" k3="1"/>
<feColorMatrix type="matrix" values="0 0 0 0 0 0 0 0 0 0 0 0 0 0 0 0 0 0 0.25 0"/>
<feBlend mode="normal" in2="shape" result="effect1_innerShadow"/>
</filter>
<clipPath id="clip0">
<rect width="36" height="36" fill="white"/>
</clipPath>
</defs>
</svg>
