<svg width="36" height="36" viewBox="0 0 36 36" fill="none" xmlns="http://www.w3.org/2000/svg">
<g clip-path="url(#clip0)">
<path d="M34.2007 14.9999H30.7807C29.6754 12.8567 28.0507 11.0245 26.0552 9.6707C26.876 8.96351 27.6419 8.19514 28.3466 7.37214C28.7257 6.92692 28.7257 6.27239 28.3466 5.82717C27.2516 4.53596 23.4716 0.489582 18.8252 0.0443668C18.5787 0.0159608 18.3307 0.00112499 18.0825 0C18.0681 0 18.0548 0 18.0405 0C18.0261 0 18.0141 0 18.0009 0C12.9807 0 8.81374 4.46038 7.65633 5.82717C7.27721 6.27239 7.27721 6.92692 7.65633 7.37214C8.36093 8.19514 9.12691 8.96351 9.94773 9.6707C7.95171 11.0244 6.32666 12.8565 5.22094 14.9999H1.80096C0.806892 14.9999 0.000976562 15.8057 0.000976562 16.7998V26.3997C0.000976562 27.3938 0.806822 28.1997 1.80096 28.1997H5.20891C7.67616 32.9897 12.6128 35.9999 18.0008 35.9999C23.3889 35.9999 28.3255 32.9897 30.7928 28.1997H34.2007C35.1948 28.1997 36.0007 27.3938 36.0007 26.3997V16.7998C36.0007 15.8058 35.1948 14.9999 34.2007 14.9999ZM23.7704 3.27119C25.1234 4.22378 26.3517 5.34209 27.4268 6.59997C26.352 7.85884 25.1236 8.97792 23.7704 9.93114C24.9854 7.8774 24.9854 5.32493 23.7704 3.27119ZM18.0399 1.20001C18.2654 1.20001 18.4887 1.21619 18.7101 1.23721C21.4314 1.55312 23.4841 3.85802 23.4841 6.59758C23.4841 9.33715 21.4314 11.642 18.7101 11.958C18.4881 11.979 18.2649 11.994 18.0393 11.9951C15.121 11.908 12.8004 9.51693 12.8006 6.5973C12.8007 3.6776 15.1215 1.28685 18.0399 1.20001ZM28.5207 24.0637C27.3822 28.9542 23.0233 32.4149 18.002 32.4149C12.9808 32.4149 8.62192 28.9542 7.48336 24.0637C6.3448 19.1732 8.72704 14.1432 13.2321 11.9255C14.6962 12.7272 16.332 13.1643 18.0008 13.1999C18.0141 13.1999 18.0272 13.1999 18.0404 13.1999C18.0536 13.1999 18.0681 13.1999 18.0824 13.1999C18.3306 13.1987 18.5786 13.1839 18.8252 13.1555C20.2074 13.002 21.5472 12.5844 22.7719 11.9255C27.2769 14.1432 29.6592 19.1732 28.5207 24.0637ZM8.5725 6.60292C9.72006 5.2554 11.0449 4.06966 12.5109 3.07798C11.1397 5.22594 11.1397 7.9745 12.5109 10.1225C11.0459 9.13162 9.72118 7.94778 8.5725 6.60292ZM4.65577 26.9998H1.80096C1.46958 26.9998 1.20099 26.7312 1.20099 26.3998V25.7998H1.80096C2.13234 25.7998 2.40093 25.5313 2.40093 25.1999C2.40093 24.8685 2.13227 24.5999 1.80096 24.5999H1.20099V23.3998H1.80096C2.13234 23.3998 2.40093 23.1312 2.40093 22.7998C2.40093 22.4685 2.13227 22.1999 1.80096 22.1999H1.20099V20.9999H1.80096C2.13234 20.9999 2.40093 20.7313 2.40093 20.3999C2.40093 20.0685 2.13227 19.7999 1.80096 19.7999H1.20099V18.5999H1.80096C2.13234 18.5999 2.40093 18.3313 2.40093 17.9999C2.40093 17.6685 2.13227 17.4 1.80096 17.4H1.20099V16.8C1.20099 16.4686 1.46958 16.2 1.80096 16.2H4.66357C3.24946 19.6605 3.24665 23.5372 4.65577 26.9998ZM30.6771 25.2879C29.0393 30.9262 23.8722 34.8034 18.0008 34.7997C12.1295 34.8034 6.96235 30.9262 5.32458 25.2879C3.6868 19.6496 5.97264 13.6075 10.9322 10.4651C11.2724 10.7225 11.6288 10.9763 12.0062 11.2199C7.30027 13.9336 5.0043 19.4704 6.409 24.718C7.81369 29.9657 12.5685 33.6152 18.0008 33.6152C23.4332 33.6152 28.1881 29.9657 29.5927 24.718C30.9973 19.4704 28.7014 13.9336 23.9954 11.2199C24.3728 10.9763 24.7292 10.7225 25.0694 10.4651C30.029 13.6075 32.3149 19.6496 30.6771 25.2879ZM34.8007 17.3999H34.2007C33.8693 17.3999 33.6007 17.6685 33.6007 17.9999C33.6007 18.3312 33.8693 18.5998 34.2007 18.5998H34.8007V19.7998H34.2007C33.8693 19.7998 33.6007 20.0684 33.6007 20.3998C33.6007 20.7312 33.8693 20.9998 34.2007 20.9998H34.8007V22.1998H34.2007C33.8693 22.1998 33.6007 22.4684 33.6007 22.7998C33.6007 23.1312 33.8693 23.3997 34.2007 23.3997H34.8007V24.5998H34.2007C33.8693 24.5998 33.6007 24.8684 33.6007 25.1997C33.6007 25.5311 33.8693 25.7997 34.2007 25.7997H34.8007V26.3997C34.8007 26.7311 34.5321 26.9996 34.2007 26.9996H31.3459C32.755 23.5371 32.7522 19.6603 31.3381 16.1997H34.2007C34.5321 16.1997 34.8007 16.4683 34.8007 16.7997V17.3999Z" fill="black" fill-opacity="0.44"/>
<path d="M10.2 16.7999V19.1998C10.2 19.8626 10.7372 20.3998 11.4 20.3998H24.5998C25.2626 20.3998 25.7999 19.8626 25.7999 19.1998V16.7999C25.7999 16.1371 25.2626 15.5999 24.5998 15.5999H11.3999C10.7372 15.5999 10.2 16.1372 10.2 16.7999ZM23.3998 16.7999H24.5998V19.1998H23.3998V16.7999ZM20.9999 16.7999H22.1999V19.1998H20.9999V16.7999ZM18.5998 16.7999H19.7999V19.1998H18.5998V16.7999ZM16.1999 16.7999H17.3999V19.1998H16.1999V16.7999ZM13.7999 16.7999H14.9999V19.1998H13.7999V16.7999ZM12.5999 19.1999H11.3999V16.7999H12.5999V19.1999Z" fill="black" fill-opacity="0.44"/>
<path d="M13.2001 22.7998H10.2001C9.86869 22.7998 9.6001 23.0685 9.6001 23.3998C9.6001 23.7312 9.86869 23.9998 10.2001 23.9998H13.2001C13.5315 23.9998 13.8 23.7311 13.8 23.3998C13.8001 23.0684 13.5315 22.7998 13.2001 22.7998Z" fill="black" fill-opacity="0.44"/>
<path d="M13.2001 25.1998H10.2001C9.86869 25.1998 9.6001 25.4684 9.6001 25.7998C9.6001 26.1312 9.86869 26.3998 10.2001 26.3998H13.2001C13.5315 26.3998 13.8 26.1312 13.8 25.7998C13.8 25.4684 13.5315 25.1998 13.2001 25.1998Z" fill="black" fill-opacity="0.44"/>
<path d="M22.7999 22.7998C22.4685 22.7998 22.2 23.0685 22.2 23.3998C22.2 23.7312 22.4685 23.9998 22.7999 23.9998H25.7999C26.1313 23.9998 26.3999 23.7311 26.3999 23.3998C26.3999 23.0684 26.1313 22.7998 25.7999 22.7998H22.7999Z" fill="black" fill-opacity="0.44"/>
<path d="M25.7999 25.1998H22.7999C22.4685 25.1998 22.2 25.4684 22.2 25.7998C22.2 26.1312 22.4685 26.3998 22.7999 26.3998H25.7999C26.1313 26.3998 26.3999 26.1312 26.3999 25.7998C26.3999 25.4684 26.1313 25.1998 25.7999 25.1998Z" fill="black" fill-opacity="0.44"/>
<path d="M17.9778 10.7981L17.9784 10.7999H17.9881H18.0001C18.0837 10.8 18.1671 10.7955 18.2503 10.7867C19.5514 10.6583 20.5144 9.51796 20.4229 8.21367C20.3313 6.90932 19.2186 5.91461 17.9123 5.96931C16.6059 6.02402 15.5802 7.10823 15.5979 8.41561C15.6156 9.72299 16.6704 10.7789 17.9778 10.7981ZM17.0652 7.64633H17.0676C17.2674 7.39812 17.5582 7.24041 17.8752 7.20835C17.9178 7.20413 17.9604 7.20174 18.003 7.20174C18.6403 7.2047 19.164 7.70518 19.196 8.34164C19.2279 8.9781 18.7568 9.52844 18.123 9.59516C17.6403 9.64586 17.1746 9.40075 16.9429 8.97417C16.7115 8.54751 16.7597 8.02348 17.0652 7.64633Z" fill="black" fill-opacity="0.44"/>
<path d="M20.3219 25.267L20.3087 25.2556C19.7311 24.7386 19.3986 24.0017 19.3931 23.2264V23.122C19.4023 22.8726 19.4472 22.6256 19.5263 22.3888C19.6026 22.1583 19.5324 21.9044 19.3485 21.7458C19.1645 21.5872 18.9031 21.5552 18.6863 21.6646C18.0265 21.9974 17.4637 22.4948 17.0525 23.1088C16.7018 23.6341 16.4841 24.2368 16.4183 24.865C16.3288 24.8705 16.2418 24.8956 16.1633 24.9388C15.0935 25.5127 14.4185 26.6212 14.3999 27.835C14.4689 29.7564 16.0782 31.2604 17.9999 31.1997C19.4802 31.2245 20.8248 30.3403 21.3886 28.9713C21.7159 28.1199 21.6608 27.1688 21.2375 26.3608C20.9979 25.946 20.6881 25.5759 20.3219 25.267ZM20.2686 28.5412C19.8829 29.4464 18.9837 30.0246 17.9999 29.9998C16.7412 30.0597 15.6697 29.0933 15.6 27.835C15.6018 27.3324 15.7905 26.8485 16.1292 26.4772C16.3963 27.0044 16.8198 27.436 17.3418 27.7133C17.5875 27.8452 17.8917 27.7905 18.076 27.5811C18.2602 27.3717 18.276 27.063 18.1139 26.836C17.4521 25.9285 17.4282 24.704 18.0539 23.7713C18.102 23.6993 18.1534 23.6292 18.2081 23.5613C18.2975 24.5451 18.7521 25.4598 19.4825 26.125C19.4875 26.1302 19.4927 26.135 19.4982 26.1395C19.7648 26.3593 19.9932 26.6216 20.1743 26.9158C20.3231 27.1993 20.4005 27.5148 20.4 27.835C20.4003 28.0765 20.3557 28.316 20.2686 28.5412Z" fill="black" fill-opacity="0.44"/>
</g>
<defs>
<clipPath id="clip0">
<rect width="36" height="36" fill="white"/>
</clipPath>
</defs>
</svg>
