<svg width="42" height="42" viewBox="0 0 42 42" fill="none" xmlns="http://www.w3.org/2000/svg">
<path d="M40.5 22.7117C40.1592 26.3998 38.7751 29.9145 36.5096 32.8447C34.2441 35.7749 31.1909 37.9992 27.7074 39.2575C24.2239 40.5158 20.454 40.7559 16.839 39.9499C13.2239 39.1438 9.91319 37.3248 7.29419 34.7058C4.67519 32.0868 2.85623 28.7761 2.05016 25.1611C1.24409 21.546 1.48425 17.7762 2.74253 14.2926C4.00081 10.8091 6.22516 7.75596 9.15533 5.49046C12.0855 3.22497 15.6003 1.84083 19.2884 1.5C17.1291 4.42125 16.09 8.02047 16.3602 11.6431C16.6303 15.2657 18.1917 18.671 20.7604 21.2396C23.3291 23.8083 26.7344 25.3697 30.357 25.6398C33.9796 25.91 37.5788 24.8709 40.5 22.7117V22.7117Z" stroke="white" stroke-opacity="0.65" stroke-width="2" stroke-linecap="round" stroke-linejoin="round"/>
</svg>
